<svg xmlns="http://www.w3.org/2000/svg" style="display: none;">
  <!-- Feature Icons -->
  <symbol id="check-circle" viewBox="0 0 24 24">
    <path stroke="currentColor" stroke-width="2" fill="none" d="M9 12l-2 2 4 4 8-8"/>
    <circle cx="12" cy="12" r="10" stroke="currentColor" stroke-width="2" fill="none"/>
  </symbol>
  
  <symbol id="grid" viewBox="0 0 24 24">
    <rect x="3" y="3" width="18" height="18" rx="2" ry="2" stroke="currentColor" stroke-width="2" fill="none"/>
    <line x1="9" y1="9" x2="15" y2="15" stroke="currentColor" stroke-width="2"/>
    <line x1="15" y1="9" x2="9" y2="15" stroke="currentColor" stroke-width="2"/>
  </symbol>
  
  <symbol id="activity" viewBox="0 0 24 24">
    <polyline points="22,12 18,12 15,21 9,3 6,12 2,12" stroke="currentColor" stroke-width="2" fill="none"/>
  </symbol>
  
  <symbol id="settings" viewBox="0 0 24 24">
    <circle cx="12" cy="12" r="3" stroke="currentColor" stroke-width="2" fill="none"/>
    <path d="M12 1v6m0 6v6m11-7h-6m-6 0H1" stroke="currentColor" stroke-width="2"/>
  </symbol>
  
  <symbol id="zap" viewBox="0 0 24 24">
    <path d="M13 2L3 14h9l-1 8 10-12h-9l1-8z" stroke="currentColor" stroke-width="2" fill="none"/>
  </symbol>
  
  <symbol id="shield" viewBox="0 0 24 24">
    <rect x="2" y="2" width="20" height="20" rx="5" ry="5" stroke="currentColor" stroke-width="2" fill="none"/>
    <path d="M16 11.37A4 4 0 1 1 12.63 8 4 4 0 0 1 16 11.37z" stroke="currentColor" stroke-width="2" fill="none"/>
    <line x1="17.5" y1="6.5" x2="17.51" y2="6.5" stroke="currentColor" stroke-width="2"/>
  </symbol>
  
  <!-- UI Icons -->
  <symbol id="github" viewBox="0 0 24 24">
    <path fill="currentColor" d="M12 0c-6.626 0-12 5.373-12 12 0 5.302 3.438 9.8 8.207 11.387.599.111.793-.261.793-.577v-2.234c-3.338.726-4.033-1.416-4.033-1.416-.546-1.387-1.333-1.756-1.333-1.756-1.089-.745.083-.729.083-.729 1.205.084 1.839 1.237 1.839 1.237 1.07 1.834 2.807 1.304 3.492.997.107-.775.418-1.305.762-1.604-2.665-.305-5.467-1.334-5.467-5.931 0-1.311.469-2.381 1.236-3.221-.124-.303-.535-1.524.117-3.176 0 0 1.008-.322 3.301 1.23.957-.266 1.983-.399 3.003-.404 1.02.005 2.047.138 3.006.404 2.291-1.552 3.297-1.23 3.297-1.23.653 1.653.242 2.874.118 3.176.77.84 1.235 1.911 1.235 3.221 0 4.609-2.807 5.624-5.479 5.921.43.372.823 1.102.823 2.222v3.293c0 .319.192.694.801.576 4.765-1.589 8.199-6.086 8.199-11.386 0-6.627-5.373-12-12-12z"/>
  </symbol>
  
  <symbol id="copy" viewBox="0 0 24 24">
    <rect x="9" y="9" width="13" height="13" rx="2" ry="2" stroke="currentColor" stroke-width="2" fill="none"/>
    <path d="M5 15H4a2 2 0 0 1-2-2V4a2 2 0 0 1 2-2h9a2 2 0 0 1 2 2v1" stroke="currentColor" stroke-width="2" fill="none"/>
  </symbol>
  
  <symbol id="check" viewBox="0 0 24 24">
    <polyline points="20,6 9,17 4,12" stroke="currentColor" stroke-width="2" fill="none"/>
  </symbol>
  
  <symbol id="arrow-right" viewBox="0 0 24 24">
    <line x1="5" y1="12" x2="19" y2="12" stroke="currentColor" stroke-width="2"/>
    <polyline points="12,5 19,12 12,19" stroke="currentColor" stroke-width="2" fill="none"/>
  </symbol>
  
  <symbol id="external-link" viewBox="0 0 24 24">
    <path d="M18 13v6a2 2 0 0 1-2 2H5a2 2 0 0 1-2-2V8a2 2 0 0 1 2-2h6" stroke="currentColor" stroke-width="2" fill="none"/>
    <polyline points="15,3 21,3 21,9" stroke="currentColor" stroke-width="2" fill="none"/>
    <line x1="10" y1="14" x2="21" y2="3" stroke="currentColor" stroke-width="2"/>
  </symbol>
  
  <!-- File Icons -->
  <symbol id="file-text" viewBox="0 0 24 24">
    <path d="M14,2H6A2,2 0 0,0 4,4V20A2,2 0 0,0 6,22H18A2,2 0 0,0 20,20V8L14,2Z" stroke="currentColor" stroke-width="2" fill="none"/>
    <polyline points="14,2 14,8 20,8" stroke="currentColor" stroke-width="2" fill="none"/>
    <line x1="16" y1="13" x2="8" y2="13" stroke="currentColor" stroke-width="2"/>
    <line x1="16" y1="17" x2="8" y2="17" stroke="currentColor" stroke-width="2"/>
    <polyline points="10,9 9,9 8,9" stroke="currentColor" stroke-width="2" fill="none"/>
  </symbol>
  
  <symbol id="folder" viewBox="0 0 24 24">
    <path d="M22 19a2 2 0 0 1-2 2H4a2 2 0 0 1-2-2V5a2 2 0 0 1 2-2h5l2 3h9a2 2 0 0 1 2 2z" stroke="currentColor" stroke-width="2" fill="none"/>
  </symbol>
  
  <!-- Brand Icons -->
  <symbol id="npm" viewBox="0 0 24 24">
    <rect x="1" y="9" width="22" height="6" stroke="currentColor" stroke-width="2" fill="none"/>
    <line x1="8" y1="9" x2="8" y2="15" stroke="currentColor" stroke-width="2"/>
    <line x1="15" y1="9" x2="15" y2="15" stroke="currentColor" stroke-width="2"/>
  </symbol>
  
  <symbol id="terminal" viewBox="0 0 24 24">
    <rect x="2" y="3" width="20" height="14" rx="2" ry="2" stroke="currentColor" stroke-width="2" fill="none"/>
    <line x1="8" y1="21" x2="16" y2="21" stroke="currentColor" stroke-width="2"/>
    <line x1="12" y1="17" x2="12" y2="21" stroke="currentColor" stroke-width="2"/>
  </symbol>
  
  <!-- Decorative Icons -->
  <symbol id="star" viewBox="0 0 24 24">
    <polygon points="12,2 15.09,8.26 22,9.27 17,14.14 18.18,21.02 12,17.77 5.82,21.02 7,14.14 2,9.27 8.91,8.26" stroke="currentColor" stroke-width="2" fill="none"/>
  </symbol>
  
  <symbol id="heart" viewBox="0 0 24 24">
    <path d="M20.84 4.61a5.5 5.5 0 0 0-7.78 0L12 5.67l-1.06-1.06a5.5 5.5 0 0 0-7.78 7.78l1.06 1.06L12 21.23l7.78-7.78 1.06-1.06a5.5 5.5 0 0 0 0-7.78z" stroke="currentColor" stroke-width="2" fill="none"/>
  </symbol>
  
  <symbol id="award" viewBox="0 0 24 24">
    <circle cx="12" cy="8" r="7" stroke="currentColor" stroke-width="2" fill="none"/>
    <polyline points="8.21,13.89 7,23 12,20 17,23 15.79,13.88" stroke="currentColor" stroke-width="2" fill="none"/>
  </symbol>
  
  <!-- Navigation Icons -->
  <symbol id="menu" viewBox="0 0 24 24">
    <line x1="3" y1="6" x2="21" y2="6" stroke="currentColor" stroke-width="2"/>
    <line x1="3" y1="12" x2="21" y2="12" stroke="currentColor" stroke-width="2"/>
    <line x1="3" y1="18" x2="21" y2="18" stroke="currentColor" stroke-width="2"/>
  </symbol>
  
  <symbol id="x" viewBox="0 0 24 24">
    <line x1="18" y1="6" x2="6" y2="18" stroke="currentColor" stroke-width="2"/>
    <line x1="6" y1="6" x2="18" y2="18" stroke="currentColor" stroke-width="2"/>
  </symbol>
  
  <symbol id="chevron-up" viewBox="0 0 24 24">
    <polyline points="18,15 12,9 6,15" stroke="currentColor" stroke-width="2" fill="none"/>
  </symbol>
  
  <symbol id="chevron-down" viewBox="0 0 24 24">
    <polyline points="6,9 12,15 18,9" stroke="currentColor" stroke-width="2" fill="none"/>
  </symbol>
</svg>
